<svg width="100" height="100" viewBox="0 0 100 100" fill="none" xmlns="http://www.w3.org/2000/svg">
<rect width="100" height="100" fill="url(#paint0_linear_836_1028)"/>
<path fill-rule="evenodd" clip-rule="evenodd" d="M49.4917 28.2029C49.3199 28.313 49.0885 28.5905 48.9776 28.8198C48.7884 29.2104 48.7759 29.4083 48.7774 31.9723C48.7789 34.6268 48.7856 34.7196 48.9993 35.0968C49.5876 36.1356 50.7688 36.2221 51.4884 35.2791L51.7628 34.9195L51.7916 32.0869C51.8191 29.3719 51.8118 29.2365 51.6133 28.8265C51.4988 28.5899 51.2618 28.3094 51.0832 28.1991C50.6513 27.9321 49.9118 27.9339 49.4917 28.2029ZM36.9747 33.3583C36.3872 33.501 35.8485 34.2173 35.8485 34.8557C35.8485 35.4081 36.2104 35.8707 38.1168 37.7547C40.1361 39.7502 40.4066 39.9349 41.1155 39.8019C42.0678 39.6232 42.6117 38.5503 42.1735 37.7146C42.0972 37.5692 41.1167 36.5422 39.9944 35.4325C38.3777 33.8339 37.8854 33.4018 37.6235 33.3514C37.4418 33.3166 37.2655 33.293 37.2318 33.2993C37.1981 33.3056 37.0825 33.3321 36.9747 33.3583ZM62.7314 33.4716C62.4902 33.5862 61.5807 34.4239 60.3644 35.6518C58.2455 37.7909 58.1656 37.9109 58.3182 38.7248C58.4082 39.2044 58.942 39.7147 59.4422 39.7991C60.1997 39.9271 60.434 39.7679 62.5072 37.7151C63.5688 36.6638 64.5053 35.6607 64.5883 35.4859C65.1691 34.2618 63.9204 32.907 62.7314 33.4716ZM41.1415 43.0652C40.5806 43.3661 40.4933 43.6019 38.5801 49.9858C38.4186 50.5244 38.2146 51.1634 38.1266 51.4058C37.9015 52.026 37.9174 52.7129 38.1646 53.0466C38.8507 53.9728 40.0033 53.9839 40.6578 53.0707C40.7543 52.936 41.0604 52.0766 41.3381 51.161C42.7259 46.5835 42.9195 45.965 42.9859 45.8964C43.0254 45.8556 46.3359 45.8335 50.3425 45.8474L57.6271 45.8725L58.0545 47.2436C58.2895 47.9977 58.6091 49.0333 58.7646 49.545C59.7442 52.767 59.8392 53.0309 60.1095 53.2831C60.4956 53.6434 60.7541 53.7562 61.1925 53.7562C61.6193 53.7562 62.1047 53.4763 62.423 53.0466C62.6693 52.7142 62.6878 52.0076 62.4663 51.3958C62.3805 51.1589 61.8424 49.4226 61.2704 47.5374C60.6983 45.6522 60.1293 43.9151 60.0057 43.6773C59.5642 42.8271 60.2803 42.8855 50.2938 42.8855C41.9277 42.8855 41.4595 42.8947 41.1415 43.0652ZM28.773 55.9381C28.1961 56.2873 28.2195 56.2365 27.3895 58.9467C26.5503 61.6869 25.3437 65.6094 25.1666 66.1725C24.5459 68.1468 23.9986 70.0265 24 70.1796C24.0027 70.4793 24.4252 71.1223 24.7734 71.357L25.1047 71.5803H32.6343C40.7266 71.5803 40.5443 71.5912 41.0025 71.0787C41.4619 70.5649 41.5058 69.9026 41.1228 69.2647C40.7384 68.6245 40.943 68.6422 33.9485 68.6422C28.1552 68.6422 27.622 68.6287 27.622 68.4819C27.622 68.3938 27.8008 67.7437 28.0193 67.0374C28.2378 66.3311 28.5655 65.2684 28.7475 64.6759C29.2331 63.0946 30.3603 59.4377 30.4756 59.0692L30.5752 58.7509H37.9041H45.2331L45.5787 59.8526C45.8746 60.7958 46.7676 63.6916 47.9117 67.4181C48.0771 67.9567 48.218 68.4415 48.2248 68.4953C48.2326 68.5565 47.4749 68.6117 46.2064 68.6422L44.1756 68.6912L43.8137 69.0535C43.4956 69.3717 43.4468 69.4848 43.4119 69.9838C43.3786 70.4591 43.4098 70.608 43.603 70.8947C44.0533 71.5629 44.1522 71.58 47.581 71.5801C50.9345 71.5803 50.9632 71.5759 51.4534 70.9932C51.8493 70.5229 51.8636 70.1803 51.5333 69.079C51.0374 67.4248 50.5534 65.8433 49.8561 63.5986C49.4881 62.4136 49.0464 60.9813 48.8747 60.4158C47.605 56.2332 47.6262 56.2852 47.0651 55.9564L46.653 55.7149L37.8965 55.7154L29.14 55.7159L28.773 55.9381ZM53.5504 55.9381C53.0385 56.248 52.9469 56.4105 52.5389 57.7323C52.3411 58.3732 52.0702 59.2503 51.9369 59.6812C51.4403 61.2869 51.3203 61.8247 51.3835 62.1613C51.4746 62.6469 51.9241 63.109 52.4479 63.2557C52.8304 63.3628 52.9506 63.3569 53.3296 63.2122C54.0499 62.9371 54.0411 62.9561 55.2533 59.0692L55.3526 58.7509H62.6825H70.0124L70.1133 59.0692C70.3158 59.7074 72.0045 65.1926 72.2917 66.1449C72.4542 66.6835 72.6723 67.3862 72.7764 67.7064C72.8804 68.0265 72.9656 68.3681 72.9656 68.4654C72.9656 68.6347 72.5658 68.6422 63.6373 68.6426C54.5019 68.6429 54.3025 68.647 53.9899 68.8376C53.0101 69.435 53.0536 70.8999 54.0662 71.4087C54.3843 71.5686 55.1064 71.58 64.9154 71.5801C76.4376 71.5803 75.7049 71.6183 76.2308 70.9932C76.6311 70.5177 76.6418 70.1826 76.2944 69.0301C76.1244 68.4666 75.919 67.7853 75.8378 67.516C75.7565 67.2467 75.2951 65.7483 74.8124 64.1862C74.3298 62.6242 73.801 60.9054 73.6374 60.3668C72.3825 56.2349 72.4027 56.2847 71.8425 55.9564L71.4304 55.7149L62.6739 55.7154L53.9174 55.7159L53.5504 55.9381Z" fill="black"/>
<defs>
<linearGradient id="paint0_linear_836_1028" x1="-0.293204" y1="21.6176" x2="101.044" y2="22.992" gradientUnits="userSpaceOnUse">
<stop stop-color="#FFFFB7"/>
<stop offset="0.0329" stop-color="#FFE297"/>
<stop offset="0.2039" stop-color="#F8D57B"/>
<stop offset="0.3713" stop-color="#FFEEB4"/>
<stop offset="0.8519" stop-color="#F0C34E"/>
<stop offset="1" stop-color="#FEEAB7"/>
<stop offset="1" stop-color="#FEFFF1"/>
</linearGradient>
</defs>
</svg>
