<svg width="26" height="27" viewBox="0 0 26 27" fill="none" xmlns="http://www.w3.org/2000/svg">
<path d="M24.1979 8.80123C23.5636 7.30154 22.6556 5.95474 21.499 4.79821C20.3425 3.64171 18.9957 2.73368 17.496 2.09936C15.9432 1.44257 14.2939 1.10955 12.5938 1.10955C10.8938 1.10955 9.24446 1.44257 7.69168 2.09936C6.19196 2.73368 4.84516 3.64171 3.68866 4.79821C2.53213 5.95474 1.6241 7.30154 0.989781 8.80123C0.33302 10.354 0 12.0034 0 13.7034C0 15.4035 0.33302 17.0528 0.989781 18.6056C1.6241 20.1053 2.53213 21.4521 3.68866 22.6086C4.84516 23.7651 6.19196 24.6731 7.69168 25.3075C9.24446 25.9643 10.8938 26.2972 12.5938 26.2972C14.2939 26.2972 15.9432 25.9643 17.496 25.3075C18.9957 24.6731 20.3425 23.7651 21.499 22.6086C22.6556 21.4521 23.5636 20.1053 24.1979 18.6056C24.8547 17.0528 25.1877 15.4035 25.1877 13.7034C25.1877 12.0034 24.8547 10.354 24.1979 8.80123Z" fill="url(#paint0_linear_17_738)"/>
<path d="M0.310547 13.2965C0.310547 20.111 5.83485 25.6353 12.6493 25.6353C19.4639 25.6353 24.9881 20.111 24.9881 13.2965C24.9881 6.48202 19.4639 0.957754 12.6493 0.957754C5.83485 0.957754 0.310547 6.48202 0.310547 13.2965Z" fill="url(#paint1_linear_17_738)"/>
<path d="M21.2113 21.8234L20.522 21.1073C20.7357 20.8919 20.9395 20.6688 21.1336 20.4389L21.9084 21.0613C21.6876 21.3238 21.4555 21.5782 21.2113 21.8234ZM17.4037 24.4086L17.0319 23.4865C17.3105 23.3666 17.583 23.2358 17.8491 23.0945L18.3352 23.9617C18.0321 24.1234 17.7215 24.2725 17.4037 24.4086ZM1.90941 7.75339L2.78279 8.22775C2.65666 8.47325 2.53917 8.72388 2.43096 8.97971C2.42104 9.00312 2.41189 9.02681 2.40213 9.05027L1.47472 8.69072C1.48817 8.65817 1.50156 8.62562 1.5153 8.59313C1.63621 8.30723 1.76795 8.02743 1.90941 7.75339ZM4.7619 4.14164L5.3945 4.90801C5.19316 5.08251 4.99742 5.26475 4.80756 5.45462C4.78298 5.4792 4.75916 5.50432 4.73483 5.5291L4.00984 4.8496C4.0416 4.81711 4.07288 4.78427 4.10505 4.7521C4.31736 4.53979 4.53649 4.33635 4.7619 4.14164ZM8.75562 1.8538L9.05609 2.80191C8.81253 2.88541 8.57121 2.9771 8.33263 3.07801C8.29201 3.0952 8.25193 3.11331 8.2116 3.13094L7.793 2.22925C7.84398 2.20687 7.89474 2.18407 7.94607 2.16236C8.213 2.04946 8.48295 1.9467 8.75562 1.8538ZM13.3157 1.23096L13.24 2.22201C13.044 2.21184 12.8472 2.20639 12.6495 2.20639C12.5441 2.20639 12.439 2.20821 12.334 2.21111L12.2829 1.21849C12.4048 1.21489 12.527 1.21288 12.6495 1.21288C12.8725 1.21288 13.0946 1.21907 13.3157 1.23096ZM17.7791 2.35321L17.3383 3.24419C17.2154 3.18689 17.0917 3.131 16.9664 3.07801C16.8127 3.013 16.6579 2.95217 16.5022 2.8944L16.8261 1.95407C17.0029 2.0193 17.1786 2.08862 17.353 2.16236C17.4966 2.22313 17.6384 2.28725 17.7791 2.35321ZM21.4962 5.06644L20.7546 5.72776C20.6684 5.63558 20.5811 5.54424 20.4915 5.45462C20.3669 5.33005 20.2397 5.20886 20.1102 5.09086L20.7617 4.34036C20.9086 4.47373 21.0529 4.61096 21.194 4.7521C21.297 4.85515 21.3973 4.96027 21.4962 5.06644ZM23.628 14.8757C23.6704 14.5775 23.7006 14.2769 23.7187 13.9741L24.7124 14.0121C24.6924 14.3573 24.6578 14.7001 24.6088 15.0399L23.628 14.8757ZM24.6607 11.9615L23.6701 12.0505C23.6365 11.7495 23.591 11.4507 23.5331 11.1547L24.5043 10.9403C24.5709 11.2776 24.6231 11.6182 24.6607 11.9615ZM23.715 12.5587L24.7054 12.4697C24.7238 12.7438 24.7332 13.0195 24.7332 13.2966C24.7332 13.3652 24.7325 13.4338 24.7313 13.5023L23.7377 13.4644C23.7385 13.4084 23.7397 13.3526 23.7397 13.2966C23.7397 13.0493 23.7309 12.8034 23.715 12.5587ZM24.3948 10.442L23.4233 10.6565C23.3516 10.3632 23.2683 10.0728 23.1724 9.78562L24.1082 9.44929C24.2182 9.77644 24.3138 10.1075 24.3948 10.442ZM23.7837 8.59313C23.8365 8.71789 23.8869 8.84332 23.9353 8.96935L22.9993 9.30575C22.9571 9.19662 22.9138 9.0878 22.8681 8.97971C22.7958 8.80885 22.7194 8.64035 22.6391 8.47404L23.5239 8.0215C23.6151 8.20942 23.702 8.39985 23.7837 8.59313ZM23.2917 7.56729L22.4069 8.01984C22.2629 7.75368 22.1077 7.49437 21.9426 7.24147L22.7627 6.67989C22.9514 6.96786 23.1282 7.26357 23.2917 7.56729ZM22.4742 6.25912L21.654 6.82081C21.4777 6.5762 21.2912 6.33854 21.0945 6.10812L21.8363 5.44668C22.061 5.70901 22.2738 5.97992 22.4742 6.25912ZM20.3765 4.00588L19.7252 4.75622C19.4922 4.56269 19.2519 4.37948 19.0049 4.20639L19.5555 3.37899C19.8374 3.57581 20.1113 3.78474 20.3765 4.00588ZM18.2363 2.57943C18.5423 2.739 18.8409 2.91085 19.1313 3.09561L18.5805 3.9233C18.3255 3.76172 18.0636 3.61088 17.7955 3.47043L18.2363 2.57943ZM16.3438 1.78767L16.0198 2.72829C15.7316 2.63627 15.4402 2.5558 15.1459 2.48805L15.3473 1.51434C15.6831 1.59092 16.0153 1.68211 16.3438 1.78767ZM13.8244 1.26903C14.1684 1.30203 14.5096 1.34966 14.8476 1.41174L14.6462 2.38557C14.3495 2.33166 14.0503 2.28951 13.7487 2.25996L13.8244 1.26903ZM11.7734 1.24406L11.8245 2.23652C11.5221 2.25858 11.222 2.29334 10.9242 2.33976L10.747 1.36127C11.0863 1.30774 11.4285 1.26861 11.7734 1.24406ZM10.2449 1.4513L10.4221 2.42967C10.126 2.49006 9.8327 2.5632 9.5424 2.64788L9.24184 1.69951C9.57263 1.6023 9.90711 1.51947 10.2449 1.4513ZM7.33028 2.44405L7.74888 3.34577C7.47717 3.47958 7.21165 3.62392 6.95285 3.77896L6.42279 2.93789C6.71749 2.76055 7.02022 2.59607 7.33028 2.44405ZM5.99164 3.21052L6.52154 4.05134C6.27004 4.21832 6.02521 4.3954 5.78765 4.58296L5.15512 3.81668C5.42555 3.6023 5.70463 3.40032 5.99164 3.21052ZM3.66053 5.22136L4.38565 5.90101C4.18329 6.12665 3.99097 6.35965 3.80872 6.5996L3.00278 6.0178C3.20999 5.74386 3.42928 5.47824 3.66053 5.22136ZM2.70388 6.43117L3.50972 7.01294C3.33826 7.26179 3.17658 7.51711 3.02612 7.77941L2.15271 7.30502C2.3237 7.00567 2.50786 6.71451 2.70388 6.43117ZM13.9355 25.3129C13.5945 25.3488 13.2507 25.3704 12.9046 25.3775V24.3837C13.2081 24.3769 13.5096 24.3578 13.8089 24.3268L13.9355 25.3129ZM12.3944 25.3775C11.9473 25.3683 11.5042 25.335 11.0657 25.2778L11.2168 24.2951C11.6056 24.3451 11.9983 24.3748 12.3944 24.3837V25.3775ZM0.572936 13.7125L1.56727 13.6993C1.57802 14.0026 1.60075 14.3038 1.6357 14.6028L0.651113 14.7426C0.610653 14.4019 0.584542 14.0584 0.572936 13.7125ZM1.60538 12.2843C1.5784 12.5838 1.56348 12.8856 1.56061 13.1892L0.566367 13.2024C0.568981 12.8562 0.58604 12.5121 0.617381 12.1708L1.60538 12.2843ZM1.82218 10.8853C1.75679 11.18 1.7038 11.4775 1.66283 11.7775L0.674675 11.6639C0.720746 11.3218 0.781451 10.9826 0.8566 10.6469L1.82218 10.8853ZM1.28996 9.16623L2.21715 9.52568C2.11401 9.81052 2.0234 10.0988 1.94439 10.39L0.978489 10.1515C1.06789 9.81936 1.17173 9.49077 1.28996 9.16623ZM0.72183 15.2477L1.70673 15.1079C1.75574 15.4065 1.81654 15.7025 1.88993 15.9955L0.93111 16.2596C0.846843 15.9257 0.776988 15.5883 0.72183 15.2477ZM1.06646 16.7515L2.02556 16.4873C2.11229 16.7761 2.21052 17.0619 2.32128 17.3441L1.40416 17.728C1.27727 17.4065 1.16472 17.0808 1.06646 16.7515ZM1.60193 18.1982L2.5188 17.8144C2.64234 18.0913 2.7767 18.362 2.92154 18.6263L2.06111 19.1238C1.89538 18.8228 1.74222 18.5142 1.60193 18.1982ZM2.31611 19.5656L3.17686 19.068C3.33421 19.3259 3.50245 19.577 3.68062 19.8213L2.89055 20.4243C2.68688 20.1462 2.49492 19.86 2.31611 19.5656ZM3.20055 20.8294L3.99062 20.2264C4.17905 20.4613 4.37733 20.6892 4.58565 20.9097L3.87884 21.6084C3.6408 21.3575 3.41487 21.0975 3.20055 20.8294ZM4.23787 21.9708L4.94447 21.2723C5.16258 21.4831 5.38783 21.6845 5.62042 21.8756L5.00852 22.6585C4.743 22.4412 4.48611 22.2117 4.23787 21.9708ZM5.4099 22.9733L6.0218 22.1904C6.26411 22.3715 6.51388 22.5416 6.76994 22.7019L6.26258 23.5566C5.97034 23.3744 5.68575 23.1802 5.4099 22.9733ZM6.70101 23.8174L7.20846 22.9625C7.47114 23.1105 7.7403 23.2479 8.01564 23.3745L7.62118 24.2871C7.30698 24.1433 7.00013 23.9866 6.70101 23.8174ZM8.08917 24.4902L8.48391 23.5769C8.7649 23.691 9.04923 23.7935 9.33685 23.8835L9.06176 24.8392C8.73368 24.7372 8.4093 24.6209 8.08917 24.4902ZM9.55203 24.9802L9.82718 24.0243C10.1194 24.1011 10.4145 24.1664 10.7124 24.2188L10.5614 25.2012C10.2216 25.1421 9.88505 25.0684 9.55203 24.9802ZM14.4416 25.2489L14.315 24.2631C14.6143 24.2181 14.9109 24.1603 15.2048 24.0909L15.4562 25.0533C15.1213 25.133 14.7829 25.1983 14.4416 25.2489ZM15.9498 24.9247L15.6985 23.9624C15.9885 23.8796 16.2753 23.7842 16.5588 23.6773L16.9308 24.6001C16.6078 24.7227 16.2806 24.8308 15.9498 24.9247ZM20.1308 20.7778C18.1325 22.7761 15.4756 23.8766 12.6495 23.8766C9.82348 23.8766 7.16659 22.7761 5.16829 20.7778C4.17965 19.7892 3.41117 18.6392 2.8866 17.3875C2.88619 17.3864 2.8859 17.3854 2.88548 17.3844C2.88488 17.3829 2.88408 17.3816 2.88348 17.3802C2.34969 16.1038 2.06943 14.7218 2.06943 13.2966C2.06943 11.9687 2.31251 10.6782 2.77746 9.47572C2.77823 9.47387 2.77931 9.47221 2.78005 9.47033C2.78084 9.46829 2.78139 9.46619 2.78212 9.46411C3.30676 8.11208 4.11197 6.87163 5.16829 5.81534C7.16659 3.81703 9.82348 2.71652 12.6495 2.71652C15.4756 2.71652 18.1325 3.81703 20.1308 5.81534C21.2511 6.93571 22.0892 8.2632 22.6094 9.71137C22.6099 9.71306 22.6103 9.71472 22.6109 9.71637C22.6114 9.71787 22.6123 9.71918 22.6128 9.72065C23.0183 10.8527 23.2296 12.0584 23.2296 13.2966C23.2296 14.8127 22.9124 16.2799 22.3103 17.6231C22.3099 17.6239 22.3095 17.6246 22.3091 17.6254C22.3089 17.6259 22.3087 17.6265 22.3085 17.6271C21.7883 18.786 21.056 19.8526 20.1308 20.7778ZM18.78 23.712L18.294 22.845C18.5542 22.691 18.8081 22.5271 19.0547 22.3523L19.6471 23.1503C19.3663 23.3502 19.0769 23.5371 18.78 23.712ZM20.0561 22.8454L19.4638 22.0476C19.7012 21.8622 19.9314 21.6665 20.1545 21.4611L20.8435 22.1769C20.5896 22.4116 20.3271 22.6346 20.0561 22.8454ZM22.2284 20.664L21.4536 20.0416C21.6378 19.8016 21.8122 19.5548 21.9759 19.3011L22.824 19.8199C22.638 20.1095 22.439 20.3908 22.2284 20.664ZM23.09 19.3846L22.2422 18.8659C22.3937 18.6052 22.5348 18.338 22.6651 18.0644L23.5721 18.4708C23.4242 18.783 23.2633 19.0877 23.09 19.3846ZM23.7837 18C23.783 18.0019 23.7821 18.0037 23.7813 18.0056L22.874 17.599C22.9918 17.3194 23.0971 17.0362 23.191 16.7499L24.1432 17.0377C24.0375 17.3624 23.9177 17.6833 23.7837 18ZM24.2909 16.5494L23.3389 16.2617C23.4197 15.9703 23.488 15.6759 23.5443 15.3789L24.5255 15.5431C24.4619 15.8819 24.3836 16.2175 24.2909 16.5494ZM24.2536 8.3944C23.7138 7.11818 22.9751 5.95321 22.0544 4.92147C22.0526 4.91936 22.0511 4.91713 22.0492 4.91506C22.0475 4.91318 22.0457 4.91155 22.044 4.90973C21.886 4.73313 21.7233 4.56001 21.5547 4.39138C20.3982 3.23488 19.0514 2.32685 17.5517 1.69253C15.9989 1.03574 14.3496 0.702749 12.6495 0.702749C10.9495 0.702749 9.30015 1.03574 7.74735 1.69253C6.24766 2.32685 4.90085 3.23488 3.74432 4.39138C3.65087 4.48486 3.55962 4.58 3.46942 4.67593C3.46649 4.67877 3.46346 4.68142 3.46062 4.68441C3.45744 4.68786 3.4546 4.69152 3.45163 4.69506C2.43408 5.78164 1.62511 7.02394 1.04548 8.3944C0.388683 9.94721 0.0556641 11.5965 0.0556641 13.2966C0.0556641 13.3524 0.0560777 13.4082 0.0567791 13.4639C0.0567791 13.464 0.0567791 13.4642 0.0567791 13.4643C0.0567791 13.4646 0.0568103 13.4647 0.0568103 13.4649C0.0780763 15.1055 0.410395 16.6973 1.04548 18.1988C1.66847 19.6717 2.55616 20.9968 3.68336 22.1394C3.68664 22.1431 3.68977 22.1469 3.69331 22.1505C3.69605 22.1533 3.69901 22.1556 3.70185 22.1583C3.71614 22.1727 3.72997 22.1874 3.74432 22.2018C4.90085 23.3583 6.24766 24.2663 7.74735 24.9006C9.30015 25.5574 10.9495 25.8904 12.6495 25.8904C14.3496 25.8904 15.9989 25.5574 17.5517 24.9006C18.9748 24.2987 20.26 23.4498 21.3758 22.3765C21.3783 22.3742 21.3809 22.3723 21.3833 22.3699C21.3864 22.3669 21.3892 22.3637 21.3922 22.3605C21.4466 22.308 21.5011 22.2554 21.5547 22.2018C22.7112 21.0453 23.6193 19.6984 24.2536 18.1988C24.9104 16.646 25.2434 14.9966 25.2434 13.2966C25.2434 11.5965 24.9104 9.94721 24.2536 8.3944Z" fill="#DCAF3A"/>
<path d="M19.4285 20.0758C17.6177 21.8865 15.2102 22.8838 12.6494 22.8838C10.0885 22.8838 7.68095 21.8865 5.87018 20.0758C4.05937 18.265 3.06213 15.8574 3.06213 13.2966C3.06213 10.7358 4.05937 8.32817 5.87018 6.5174C7.68095 4.70663 10.0885 3.70939 12.6494 3.70939C15.2102 3.70939 17.6177 4.70663 19.4285 6.5174C21.2393 8.32817 22.2366 10.7358 22.2366 13.2966C22.2366 15.8574 21.2393 18.265 19.4285 20.0758ZM19.7892 6.15671C17.8821 4.24955 15.3465 3.19926 12.6494 3.19926C9.95224 3.19926 7.41657 4.24955 5.50945 6.15671C3.60233 8.06383 2.552 10.5995 2.552 13.2966C2.552 15.9937 3.60233 18.5293 5.50945 20.4365C7.41657 22.3436 9.95224 23.3939 12.6494 23.3939C15.3465 23.3939 17.8821 22.3436 19.7892 20.4365C21.6964 18.5293 22.7467 15.9937 22.7467 13.2966C22.7467 10.5995 21.6964 8.06383 19.7892 6.15671Z" fill="#DCAF3A"/>
<path d="M20.2143 14.682C20.193 15.1476 19.6894 15.625 18.7581 16.0627C17.5409 16.6348 16.2758 16.3365 14.9976 15.1761C14.3682 14.6047 13.8877 13.9527 13.6201 13.5516H17.113C17.2539 13.5516 17.3681 13.4374 17.3681 13.2966C17.3681 13.1557 17.2539 13.0415 17.113 13.0415H13.6199C13.8857 12.6427 14.3622 11.9957 14.9892 11.4247C16.2701 10.2579 17.5382 9.95702 18.7581 10.5304C19.6885 10.9677 20.1921 11.4447 20.2143 11.9099C20.245 12.5536 19.3833 13.0717 19.375 13.0766C19.3748 13.0768 19.3745 13.077 19.3743 13.0771C19.3679 13.0809 19.3618 13.085 19.3557 13.0893C19.3548 13.09 19.3539 13.0905 19.353 13.0912C19.3473 13.0953 19.3419 13.0999 19.3365 13.1046C19.3354 13.1055 19.3342 13.1064 19.3332 13.1073C19.33 13.1102 19.327 13.1134 19.324 13.1165C19.321 13.1194 19.3179 13.1224 19.315 13.1255C19.314 13.1266 19.3131 13.1278 19.3121 13.129C19.3075 13.1343 19.303 13.1397 19.2989 13.1453C19.2982 13.1462 19.2977 13.1471 19.297 13.148C19.2927 13.1541 19.2886 13.1603 19.2848 13.1666C19.2846 13.1669 19.2845 13.1671 19.2843 13.1674C19.2833 13.1691 19.2826 13.1708 19.2816 13.1726C19.2786 13.1779 19.2758 13.1832 19.2732 13.1887C19.2715 13.1922 19.2702 13.1958 19.2687 13.1994C19.2671 13.2034 19.2653 13.2073 19.2639 13.2113C19.2623 13.2159 19.261 13.2204 19.2597 13.225C19.2587 13.2282 19.2577 13.2315 19.2569 13.2347C19.2557 13.2396 19.2547 13.2445 19.2538 13.2494C19.2532 13.2526 19.2525 13.2558 19.2521 13.259C19.2514 13.2638 19.2509 13.2685 19.2505 13.2732C19.2501 13.2768 19.2498 13.2803 19.2496 13.2839C19.2494 13.2881 19.2494 13.2924 19.2494 13.2966C19.2494 13.3008 19.2494 13.305 19.2496 13.3092C19.2498 13.3128 19.2501 13.3163 19.2505 13.3199C19.2509 13.3246 19.2514 13.3294 19.2521 13.3341C19.2525 13.3373 19.2532 13.3405 19.2538 13.3437C19.2547 13.3486 19.2557 13.3535 19.2569 13.3584C19.2577 13.3616 19.2587 13.3649 19.2597 13.3681C19.261 13.3727 19.2623 13.3773 19.2639 13.3818C19.2653 13.3858 19.2671 13.3898 19.2687 13.3937C19.2702 13.3973 19.2715 13.4009 19.2732 13.4044C19.2758 13.4099 19.2786 13.4152 19.2816 13.4206C19.2826 13.4223 19.2833 13.424 19.2843 13.4258C19.2845 13.426 19.2846 13.4262 19.2848 13.4265C19.2886 13.4329 19.2927 13.439 19.297 13.4451C19.2977 13.446 19.2982 13.447 19.2989 13.4478C19.303 13.4534 19.3074 13.4587 19.312 13.464C19.313 13.4652 19.314 13.4665 19.315 13.4677C19.3179 13.4708 19.321 13.4737 19.324 13.4766C19.327 13.4797 19.33 13.4829 19.3331 13.4858C19.3342 13.4868 19.3355 13.4877 19.3366 13.4887C19.342 13.4933 19.3474 13.4978 19.353 13.502C19.3539 13.5026 19.3548 13.5031 19.3557 13.5037C19.3617 13.5081 19.3679 13.5122 19.3743 13.516C19.3745 13.5161 19.3748 13.5163 19.375 13.5165C19.3837 13.5216 20.2436 14.0451 20.2143 14.682ZM15.4155 19.4053C14.9782 20.3357 14.5012 20.8393 14.036 20.8615C14.0247 20.862 14.0136 20.8623 14.0023 20.8623C13.3743 20.8622 12.8741 20.0304 12.8693 20.0222C12.8691 20.022 12.8689 20.0218 12.8688 20.0215C12.8649 20.015 12.8607 20.0087 12.8563 20.0025C12.8557 20.0018 12.8553 20.001 12.8548 20.0002C12.8505 19.9944 12.8458 19.9888 12.841 19.9833C12.8402 19.9824 12.8394 19.9813 12.8386 19.9804C12.8355 19.977 12.8321 19.9738 12.8288 19.9706C12.8261 19.9678 12.8234 19.9649 12.8205 19.9622C12.8191 19.961 12.8176 19.96 12.8162 19.9588C12.8112 19.9544 12.806 19.95 12.8007 19.9461C12.7996 19.9453 12.7984 19.9446 12.7974 19.9439C12.7915 19.9397 12.7855 19.9357 12.7794 19.9321C12.7791 19.9319 12.7788 19.9317 12.7786 19.9315C12.7766 19.9304 12.7745 19.9295 12.7725 19.9284C12.7675 19.9256 12.7625 19.9229 12.7574 19.9204C12.7535 19.9187 12.7497 19.9172 12.7458 19.9156C12.7421 19.9141 12.7385 19.9125 12.7348 19.9112C12.73 19.9095 12.7252 19.9081 12.7203 19.9067C12.7173 19.9058 12.7144 19.9049 12.7113 19.9041C12.7063 19.9028 12.7011 19.9019 12.696 19.9009C12.693 19.9004 12.6901 19.8997 12.6871 19.8993C12.6822 19.8985 12.6773 19.8981 12.6724 19.8976C12.669 19.8973 12.6655 19.897 12.6621 19.8968C12.6578 19.8966 12.6535 19.8966 12.6491 19.8966C12.645 19.8966 12.6409 19.8966 12.6368 19.8968C12.6332 19.8969 12.6295 19.8974 12.6259 19.8977C12.6212 19.8981 12.6165 19.8986 12.6118 19.8992C12.6086 19.8997 12.6055 19.9004 12.6023 19.901C12.5974 19.9019 12.5924 19.9028 12.5875 19.9041C12.5843 19.9049 12.5811 19.9059 12.5779 19.9068C12.5733 19.9082 12.5686 19.9095 12.5641 19.9111C12.5601 19.9125 12.5563 19.9142 12.5524 19.9158C12.5487 19.9173 12.5451 19.9187 12.5414 19.9204C12.5361 19.9229 12.531 19.9257 12.5258 19.9286C12.5239 19.9296 12.522 19.9304 12.5201 19.9315C12.5199 19.9317 12.5196 19.9319 12.5194 19.932C12.5131 19.9357 12.507 19.9398 12.501 19.9441C12.5001 19.9448 12.499 19.9454 12.4981 19.946C12.4925 19.9501 12.4872 19.9546 12.482 19.9592C12.4808 19.9602 12.4794 19.9612 12.4783 19.9622C12.4752 19.965 12.4723 19.9681 12.4694 19.9711C12.4663 19.9741 12.463 19.9771 12.4601 19.9804C12.4592 19.9814 12.4583 19.9826 12.4573 19.9838C12.4527 19.9891 12.4482 19.9945 12.444 20.0002C12.4433 20.001 12.4428 20.002 12.4422 20.0029C12.4378 20.009 12.4337 20.0151 12.4299 20.0215C12.4298 20.0218 12.4296 20.022 12.4294 20.0222C12.4243 20.0309 11.9008 20.8906 11.2639 20.8615C10.7984 20.8401 10.3209 20.3366 9.88319 19.4053C9.31114 18.1882 9.60944 16.923 10.7698 15.6448C11.3412 15.0154 11.9932 14.5349 12.3943 14.2673V17.7602C12.3943 17.9011 12.5085 18.0153 12.6494 18.0153C12.7902 18.0153 12.9044 17.9011 12.9044 17.7602V14.2671C13.3032 14.5329 13.9502 15.0094 14.5212 15.6364C15.688 16.9173 15.9889 18.1854 15.4155 19.4053ZM6.54062 16.0627C5.61018 15.6254 5.10661 15.1484 5.08442 14.6833C5.05369 14.0395 5.91536 13.5214 5.92368 13.5165C5.93143 13.5119 5.93883 13.507 5.9459 13.5018C5.94772 13.5005 5.94938 13.4989 5.9512 13.4975C5.95748 13.4926 5.96354 13.4875 5.96928 13.4821C5.97154 13.48 5.97371 13.4777 5.97591 13.4755C5.98145 13.4699 5.98672 13.464 5.99169 13.458C5.99319 13.4561 5.99472 13.4544 5.99618 13.4525C6.00266 13.4441 6.00865 13.4354 6.01398 13.4264C6.0141 13.4261 6.01426 13.426 6.01439 13.4258C6.01538 13.424 6.01614 13.4223 6.0171 13.4206C6.02007 13.4152 6.02297 13.4099 6.02552 13.4044C6.02718 13.4009 6.02855 13.3973 6.03001 13.3937C6.03167 13.3898 6.03336 13.3858 6.03476 13.3818C6.03639 13.3773 6.03767 13.3727 6.03904 13.3681C6.03999 13.3649 6.04101 13.3616 6.04184 13.3584C6.04305 13.3535 6.04398 13.3486 6.04493 13.3437C6.04551 13.3405 6.04618 13.3373 6.04666 13.3341C6.04736 13.3294 6.0478 13.3246 6.04825 13.3199C6.04857 13.3163 6.04895 13.3128 6.04911 13.3092C6.04933 13.305 6.0493 13.3008 6.0493 13.2966C6.0493 13.2924 6.04933 13.2881 6.04911 13.2839C6.04895 13.2804 6.04857 13.2768 6.04825 13.2732C6.0478 13.2685 6.04736 13.2638 6.04666 13.259C6.04618 13.2558 6.04551 13.2526 6.04493 13.2495C6.04398 13.2446 6.04305 13.2396 6.04184 13.2347C6.04101 13.2315 6.03999 13.2282 6.03904 13.225C6.03767 13.2204 6.03639 13.2159 6.03476 13.2113C6.03336 13.2073 6.03167 13.2034 6.03001 13.1994C6.02855 13.1958 6.02718 13.1922 6.02552 13.1887C6.02297 13.1832 6.02007 13.1779 6.0171 13.1726C6.01614 13.1708 6.01538 13.1691 6.01439 13.1674C6.01423 13.1671 6.01407 13.1669 6.01391 13.1666C6.01012 13.1602 6.00597 13.154 6.00161 13.1479C6.001 13.1471 6.00049 13.1461 5.99985 13.1453C5.99574 13.1397 5.99121 13.1343 5.98656 13.129C5.98557 13.1278 5.98467 13.1266 5.98369 13.1255C5.98091 13.1224 5.97779 13.1195 5.97482 13.1165C5.97176 13.1135 5.96877 13.1102 5.96554 13.1073C5.96452 13.1064 5.96338 13.1056 5.96236 13.1047C5.95694 13.1 5.95145 13.0954 5.94571 13.0911C5.94489 13.0905 5.94396 13.09 5.9431 13.0894C5.93701 13.085 5.93082 13.0809 5.92442 13.0771C5.92416 13.077 5.92394 13.0768 5.92368 13.0766C5.91498 13.0715 5.05509 12.548 5.08436 11.9111C5.10575 11.4456 5.60931 10.9681 6.54062 10.5304C7.75776 9.95833 9.02292 10.2567 10.3011 11.417C10.9305 11.9884 11.411 12.6404 11.6786 13.0415H8.18573C8.04484 13.0415 7.93066 13.1557 7.93066 13.2966C7.93066 13.4374 8.04484 13.5516 8.18573 13.5516H11.6788C11.413 13.9504 10.9365 14.5974 10.3095 15.1685C9.02862 16.3352 7.7606 16.6361 6.54062 16.0627ZM12.9045 13.2945C12.9044 13.3042 12.905 13.3138 12.906 13.3234C12.9063 13.3262 12.9068 13.329 12.9071 13.3318C12.9082 13.3393 12.9096 13.3466 12.9112 13.3539C12.9119 13.3565 12.9124 13.3592 12.9131 13.3619C12.9156 13.3715 12.9186 13.3809 12.9222 13.3901C12.9227 13.3913 12.9234 13.3925 12.9239 13.3938C12.9273 13.402 12.9311 13.41 12.9354 13.4179C12.936 13.419 12.9364 13.4201 12.937 13.4212C12.9468 13.4388 13.0409 13.6051 13.2086 13.8558C12.9579 13.6881 12.7916 13.594 12.774 13.5841C12.7658 13.5796 12.7575 13.5756 12.7491 13.572C12.7476 13.5714 12.7462 13.5709 12.7447 13.5703C12.7366 13.5671 12.7283 13.5642 12.72 13.5618C12.7175 13.5611 12.715 13.5605 12.7125 13.5598C12.7046 13.5578 12.6967 13.5562 12.6887 13.5549C12.6866 13.5546 12.6845 13.5542 12.6825 13.5539C12.6723 13.5526 12.6621 13.5517 12.6519 13.5516C12.6517 13.5516 12.6515 13.5517 12.6513 13.5517C12.6417 13.5516 12.6321 13.5522 12.6226 13.5533C12.6197 13.5535 12.6168 13.554 12.6139 13.5544C12.6066 13.5554 12.5994 13.5568 12.5923 13.5584C12.5895 13.559 12.5867 13.5596 12.5839 13.5603C12.5744 13.5628 12.5651 13.5658 12.556 13.5694C12.5545 13.57 12.5532 13.5707 12.5518 13.5713C12.5437 13.5746 12.5359 13.5783 12.5282 13.5825C12.527 13.5831 12.5258 13.5835 12.5247 13.5841C12.5071 13.594 12.3408 13.6881 12.0901 13.8558C12.2578 13.6051 12.3519 13.4388 12.3618 13.4212C12.3663 13.4131 12.3703 13.4047 12.3739 13.3963C12.3746 13.3948 12.375 13.3932 12.3757 13.3916C12.3789 13.3836 12.3817 13.3755 12.3841 13.3673C12.3848 13.3647 12.3855 13.3621 12.3861 13.3596C12.3881 13.3518 12.3897 13.3439 12.391 13.336C12.3913 13.3339 12.3917 13.3317 12.392 13.3296C12.3933 13.3194 12.3942 13.3092 12.3943 13.2991C12.3943 13.299 12.3943 13.2988 12.3943 13.2986C12.3943 13.2889 12.3937 13.2793 12.3927 13.2697C12.3924 13.2669 12.3919 13.2641 12.3916 13.2613C12.3905 13.2539 12.3891 13.2465 12.3875 13.2393C12.3868 13.2366 12.3863 13.2339 12.3856 13.2312C12.3831 13.2217 12.3801 13.2122 12.3765 13.203C12.376 13.2018 12.3753 13.2006 12.3748 13.1993C12.3714 13.1911 12.3676 13.1831 12.3633 13.1752C12.3627 13.1741 12.3624 13.173 12.3618 13.1719C12.3519 13.1543 12.2578 12.988 12.0901 12.7373C12.3408 12.9051 12.5071 12.9991 12.5247 13.0089C12.5296 13.0117 12.5348 13.0138 12.5398 13.0162C12.5442 13.0183 12.5484 13.0206 12.5528 13.0224C12.56 13.0254 12.5673 13.0276 12.5747 13.0299C12.5778 13.0308 12.5809 13.0321 12.584 13.0329C12.5938 13.0355 12.6036 13.0374 12.6135 13.0388C12.6144 13.0389 12.6153 13.0392 12.6161 13.0393C12.6271 13.0407 12.6381 13.0415 12.6491 13.0415C12.6538 13.0415 12.6585 13.0409 12.6631 13.0406C12.6694 13.0403 12.6756 13.0402 12.6819 13.0394C12.686 13.0388 12.69 13.0378 12.6941 13.037C12.7008 13.0359 12.7076 13.0348 12.7142 13.033C12.7186 13.0319 12.7228 13.0302 12.7271 13.0288C12.7332 13.0269 12.7393 13.0251 12.7453 13.0227C12.7507 13.0205 12.7559 13.0177 12.7611 13.0151C12.7654 13.013 12.7698 13.0113 12.774 13.0089C12.7744 13.0088 12.7755 13.0081 12.776 13.0078C12.7763 13.0077 12.7765 13.0075 12.7768 13.0074C12.8027 12.9928 12.9657 12.8999 13.2086 12.7373C13.0409 12.988 12.9468 13.1543 12.937 13.1719C12.9324 13.1801 12.9284 13.1883 12.9248 13.1968C12.9241 13.1983 12.9237 13.2 12.9231 13.2015C12.9198 13.2095 12.917 13.2177 12.9146 13.2258C12.9139 13.2284 12.9132 13.2309 12.9126 13.2335C12.9106 13.2413 12.909 13.2492 12.9078 13.2571C12.9074 13.2593 12.907 13.2614 12.9067 13.2635C12.9054 13.2737 12.9045 13.2838 12.9044 13.294C12.9044 13.2942 12.9045 13.2943 12.9045 13.2945ZM9.88319 7.18784C10.3205 6.2574 10.7975 5.75384 11.2627 5.73161C11.9053 5.70081 12.4245 6.56255 12.4294 6.57087C12.4296 6.57113 12.4298 6.57135 12.4299 6.57161C12.4337 6.57808 12.4379 6.58433 12.4423 6.59048C12.4429 6.59128 12.4434 6.59214 12.4439 6.5929C12.4482 6.59868 12.4528 6.60422 12.4576 6.60964C12.4585 6.61066 12.4593 6.61178 12.4601 6.61277C12.4631 6.61605 12.4664 6.61908 12.4696 6.62224C12.4725 6.62514 12.4753 6.62814 12.4783 6.63088C12.4795 6.63199 12.4809 6.63298 12.4821 6.6341C12.4873 6.63859 12.4926 6.64299 12.4981 6.64704C12.4991 6.64781 12.5003 6.64845 12.5013 6.64921C12.5072 6.65339 12.5132 6.6574 12.5194 6.66107C12.5196 6.66123 12.5199 6.66142 12.5201 6.66158C12.5221 6.66273 12.5241 6.66356 12.526 6.66464C12.5311 6.66745 12.5362 6.67022 12.5414 6.67268C12.5451 6.67443 12.549 6.6759 12.5528 6.67743C12.5565 6.67896 12.5602 6.68058 12.564 6.68192C12.5687 6.68361 12.5735 6.68498 12.5782 6.68635C12.5813 6.68725 12.5844 6.68824 12.5875 6.689C12.5924 6.69028 12.5975 6.69123 12.6025 6.69216C12.6056 6.69273 12.6087 6.69337 12.6117 6.69385C12.6165 6.69455 12.6213 6.69499 12.6261 6.69544C12.6296 6.69579 12.6332 6.69614 12.6368 6.69633C12.641 6.69652 12.6451 6.69652 12.6493 6.69652C12.6535 6.69652 12.6578 6.69652 12.662 6.69633C12.6655 6.69614 12.669 6.69579 12.6725 6.69544C12.6774 6.69503 12.6822 6.69455 12.687 6.69385C12.6901 6.69337 12.6931 6.69276 12.6961 6.69219C12.7012 6.69123 12.7063 6.69028 12.7113 6.689C12.7144 6.68824 12.7174 6.68725 12.7205 6.68635C12.7253 6.68498 12.73 6.68361 12.7347 6.68192C12.7385 6.68058 12.7423 6.67896 12.746 6.67743C12.7498 6.67586 12.7536 6.67443 12.7573 6.67268C12.7626 6.67022 12.7677 6.66738 12.7729 6.66458C12.7747 6.66353 12.7767 6.6627 12.7786 6.66158C12.7788 6.66142 12.7791 6.66126 12.7793 6.66107C12.7857 6.65734 12.7918 6.65323 12.7978 6.64892C12.7987 6.64828 12.7997 6.64771 12.8006 6.64707C12.8062 6.64293 12.8116 6.63843 12.8169 6.63381C12.8181 6.63279 12.8193 6.6319 12.8205 6.63088C12.8236 6.62804 12.8265 6.62488 12.8295 6.62185C12.8325 6.61882 12.8357 6.61592 12.8386 6.61277C12.8396 6.61165 12.8404 6.61041 12.8414 6.60929C12.8461 6.60397 12.8506 6.59855 12.8547 6.5929C12.8554 6.59211 12.8559 6.59118 12.8565 6.59032C12.8609 6.58423 12.865 6.57802 12.8688 6.57161C12.8689 6.57135 12.8691 6.57113 12.8693 6.57087C12.8744 6.5622 13.3977 5.70218 14.0348 5.73155C14.5003 5.75294 14.9778 6.25651 15.4155 7.18784C15.9876 8.40492 15.6893 9.67014 14.5289 10.9483C13.9575 11.5777 13.3055 12.0582 12.9044 12.3258V8.83292C12.9044 8.69203 12.7902 8.57785 12.6494 8.57785C12.5085 8.57785 12.3943 8.69203 12.3943 8.83292V12.326C11.9955 12.0602 11.3485 11.5837 10.7775 10.9568C9.61071 9.67578 9.30983 8.40773 9.88319 7.18784ZM19.9424 13.2966C20.2755 13.0261 20.7532 12.5245 20.7239 11.8877C20.6929 11.2115 20.1045 10.5995 18.9751 10.0687C17.8952 9.56116 16.7606 9.6446 15.6449 10.3011C16.3013 9.18532 16.3848 8.05076 15.8772 6.97085C15.3464 5.84145 14.7344 5.25305 14.0582 5.22196C13.422 5.19279 12.9201 5.67068 12.6494 6.00367C12.379 5.67065 11.8772 5.19269 11.2405 5.22196C10.5643 5.25305 9.95231 5.84145 9.42149 6.97085C8.91394 8.05076 8.99741 9.18532 9.65385 10.3011C8.5381 9.6446 7.40351 9.56116 6.32366 10.0687C5.19423 10.5995 4.60582 11.2115 4.57477 11.8877C4.5455 12.5245 5.02324 13.0261 5.35626 13.2966C5.02324 13.567 4.5455 14.0686 4.57477 14.7054C4.60582 15.3816 5.19423 15.9936 6.32366 16.5244C6.79078 16.744 7.268 16.853 7.74966 16.853C8.3813 16.853 9.02037 16.6652 9.65334 16.2929C8.99738 17.4084 8.9141 18.5426 9.42149 19.6223C9.95231 20.7517 10.5643 21.3401 11.2405 21.3712C11.2593 21.372 11.2778 21.3724 11.2963 21.3724C11.9065 21.3724 12.3868 20.913 12.6493 20.5897C12.9118 20.913 13.3921 21.3725 14.0024 21.3724C14.0209 21.3724 14.0395 21.372 14.0582 21.3712C14.7344 21.3401 15.3464 20.7517 15.8772 19.6223C16.2177 18.8978 16.2918 18.1486 16.1059 17.3971L18.4859 20.0353C18.5362 20.0911 18.6057 20.1196 18.6754 20.1196C18.7362 20.1196 18.7974 20.0979 18.8461 20.0539C18.9507 19.9595 18.959 19.7982 18.8647 19.6936L15.9417 16.4534C16.4774 16.7191 17.0158 16.8531 17.549 16.853C18.0306 16.853 18.508 16.7439 18.9751 16.5244C20.1045 15.9936 20.6929 15.3816 20.7239 14.7054C20.7532 14.0686 20.2755 13.567 19.9424 13.2966Z" fill="#DCAF3A"/>
<defs>
<linearGradient id="paint0_linear_17_738" x1="-0.0738514" y1="20.8523" x2="25.4508" y2="20.5061" gradientUnits="userSpaceOnUse">
<stop stop-color="#FFFFB7"/>
<stop offset="0.0329" stop-color="#FFE297"/>
<stop offset="0.2039" stop-color="#F8D57B"/>
<stop offset="0.3713" stop-color="#FFEEB4"/>
<stop offset="0.8519" stop-color="#F0C34E"/>
<stop offset="1" stop-color="#FEEAB7"/>
<stop offset="1" stop-color="#FEFFF1"/>
</linearGradient>
<linearGradient id="paint1_linear_17_738" x1="0.238191" y1="20.3006" x2="25.2459" y2="19.9614" gradientUnits="userSpaceOnUse">
<stop stop-color="#FFFFB7"/>
<stop offset="0.0329" stop-color="#FFE297"/>
<stop offset="0.2039" stop-color="#F8D57B"/>
<stop offset="0.3713" stop-color="#FFEEB4"/>
<stop offset="0.8519" stop-color="#F0C34E"/>
<stop offset="1" stop-color="#FEEAB7"/>
<stop offset="1" stop-color="#FEFFF1"/>
</linearGradient>
</defs>
</svg>
