<svg width="60" height="60" viewBox="0 0 60 60" fill="none" xmlns="http://www.w3.org/2000/svg">
<path d="M49.7951 49.7128L48.1727 48.0274C48.6758 47.5203 49.1554 46.9953 49.6122 46.454L51.4359 47.9189C50.9163 48.5369 50.3699 49.1357 49.7951 49.7128ZM40.8329 55.7978L39.958 53.6274C40.6137 53.3451 41.255 53.0372 41.8814 52.7047L43.0255 54.7459C42.3122 55.1263 41.5811 55.4774 40.8329 55.7978ZM4.36327 16.5955L6.41898 17.712C6.1221 18.2898 5.84556 18.8798 5.59086 19.4819C5.56752 19.537 5.54598 19.5928 5.52302 19.648L3.34011 18.8017C3.37178 18.7251 3.40329 18.6485 3.43564 18.572C3.72021 17.8991 4.0303 17.2405 4.36327 16.5955ZM11.0773 8.0943L12.5663 9.89815C12.0924 10.3089 11.6317 10.7378 11.1848 11.1847C11.1269 11.2426 11.0709 11.3017 11.0136 11.36L9.30717 9.76067C9.38192 9.6842 9.45553 9.60691 9.53125 9.53119C10.031 9.03146 10.5468 8.55259 11.0773 8.0943ZM20.4776 2.70929L21.1848 4.9409C20.6115 5.13744 20.0435 5.35327 19.4819 5.59079C19.3863 5.63124 19.292 5.67386 19.1971 5.71536L18.2118 3.59302C18.3318 3.54034 18.4513 3.48668 18.5721 3.43557C19.2004 3.16983 19.8358 2.92797 20.4776 2.70929ZM31.2109 1.24327L31.0327 3.57598C30.5713 3.55204 30.1081 3.53921 29.6428 3.53921C29.3947 3.53921 29.1473 3.54348 28.9002 3.55031L28.7799 1.21394C29.0669 1.20546 29.3545 1.20073 29.6428 1.20073C30.1678 1.20073 30.6905 1.21529 31.2109 1.24327ZM41.7166 3.88479L40.679 5.98192C40.3899 5.84707 40.0987 5.71552 39.8037 5.59079C39.4421 5.43777 39.0776 5.29459 38.711 5.15861L39.4734 2.9453C39.8897 3.09884 40.3032 3.26199 40.7136 3.43557C41.0518 3.57861 41.3854 3.72952 41.7166 3.88479ZM50.4658 10.2711L48.7201 11.8276C48.5173 11.6107 48.3118 11.3957 48.1009 11.1847C47.8077 10.8915 47.5084 10.6063 47.2035 10.3285L48.7368 8.56205C49.0828 8.87597 49.4222 9.19896 49.7545 9.53119C49.997 9.77373 50.233 10.0212 50.4658 10.2711ZM55.4834 33.3596C55.5832 32.6578 55.6544 31.9502 55.697 31.2376L58.0359 31.3268C57.9888 32.1396 57.9074 32.9463 57.7922 33.7461L55.4834 33.3596ZM57.9141 26.5004L55.5825 26.7098C55.5036 26.0013 55.3964 25.2981 55.2601 24.6014L57.546 24.0967C57.7029 24.8907 57.8257 25.6922 57.9141 26.5004ZM55.6882 27.9059L58.0194 27.6965C58.0627 28.3417 58.0849 28.9905 58.0849 29.6428C58.0849 29.8044 58.0831 29.9657 58.0805 30.1269L55.7416 30.0377C55.7435 29.9061 55.7464 29.7747 55.7464 29.6428C55.7464 29.0607 55.7258 28.4819 55.6882 27.9059ZM57.2885 22.9239L55.0018 23.4288C54.833 22.7384 54.6368 22.0547 54.411 21.3789L56.6138 20.5872C56.8726 21.3572 57.0976 22.1365 57.2885 22.9239ZM55.8501 18.572C55.9743 18.8657 56.0928 19.1609 56.2068 19.4576L54.0037 20.2494C53.9044 19.9925 53.8025 19.7363 53.6949 19.4819C53.5248 19.0798 53.3448 18.6832 53.1558 18.2917L55.2385 17.2265C55.4532 17.6688 55.6577 18.1171 55.8501 18.572ZM54.6919 16.1574L52.6093 17.2226C52.2704 16.5962 51.9051 15.9858 51.5165 15.3906L53.4467 14.0687C53.8909 14.7465 54.307 15.4426 54.6919 16.1574ZM52.7678 13.0783L50.8373 14.4004C50.4223 13.8247 49.9831 13.2653 49.5203 12.7229L51.2663 11.166C51.7952 11.7835 52.2959 12.4212 52.7678 13.0783ZM47.8303 7.77475L46.2972 9.54086C45.7489 9.08534 45.1833 8.65413 44.6018 8.24671L45.8977 6.29922C46.5614 6.76247 47.2061 7.25424 47.8303 7.77475ZM42.7928 4.41724C43.513 4.79284 44.2159 5.19733 44.8993 5.63222L43.6029 7.58039C43.0027 7.20006 42.3863 6.84502 41.7553 6.51445L42.7928 4.41724ZM38.3384 2.55364L37.5758 4.76762C36.8972 4.55104 36.2115 4.36163 35.5187 4.20216L35.9928 1.91028C36.7831 2.09053 37.5652 2.30516 38.3384 2.55364ZM32.4082 1.33288C33.2179 1.41055 34.021 1.52267 34.8167 1.66878L34.3425 3.96096C33.6442 3.83406 32.9399 3.73485 32.23 3.66528L32.4082 1.33288ZM27.5807 1.27412L27.701 3.61012C26.9892 3.66206 26.2827 3.74386 25.582 3.85312L25.1648 1.54999C25.9634 1.42399 26.769 1.33191 27.5807 1.27412ZM23.9829 1.76191L24.4 4.06475C23.703 4.20688 23.0127 4.37904 22.3294 4.57835L21.622 2.34614C22.4006 2.11732 23.1879 1.92236 23.9829 1.76191ZM17.1227 4.09859L18.1079 6.22102C17.4684 6.53598 16.8434 6.87571 16.2343 7.24066L14.9867 5.26097C15.6803 4.84356 16.3929 4.45641 17.1227 4.09859ZM13.9718 5.90268L15.2191 7.88177C14.6271 8.27478 14.0508 8.69158 13.4917 9.13307L12.0029 7.32944C12.6394 6.82483 13.2963 6.34942 13.9718 5.90268ZM8.48498 10.6357L10.1917 12.2354C9.71542 12.7665 9.26274 13.315 8.83378 13.8797L6.9368 12.5103C7.42451 11.8655 7.94067 11.2403 8.48498 10.6357ZM6.23325 13.4833L8.13001 14.8526C7.72642 15.4384 7.34587 16.0393 6.99173 16.6567L4.93594 15.5401C5.33841 14.8355 5.77187 14.1502 6.23325 13.4833ZM32.6697 57.9263C31.867 58.0108 31.0579 58.0615 30.2432 58.0782V55.7391C30.9575 55.7231 31.6672 55.6782 32.3717 55.6053L32.6697 57.9263ZM29.0425 58.0782C27.9901 58.0567 26.947 57.9783 25.915 57.8437L26.2706 55.5307C27.1856 55.6484 28.1101 55.7182 29.0425 55.7391V58.0782ZM1.21753 30.6219L3.55796 30.5907C3.58325 31.3045 3.63676 32.0136 3.71901 32.7172L1.40154 33.0463C1.30631 32.2445 1.24485 31.436 1.21753 30.6219ZM3.64764 27.2601C3.58415 27.9652 3.54903 28.6754 3.54228 29.3901L1.20207 29.4212C1.20822 28.6062 1.24837 27.7964 1.32214 26.993L3.64764 27.2601ZM4.15795 23.9672C4.00403 24.6608 3.8793 25.3611 3.78287 26.0672L1.457 25.7999C1.56544 24.9946 1.70832 24.1964 1.88521 23.406L4.15795 23.9672ZM2.90522 19.921L5.0876 20.767C4.84483 21.4375 4.63156 22.1161 4.44559 22.8015L2.1721 22.24C2.38253 21.4583 2.62695 20.6848 2.90522 19.921ZM1.56799 34.2354L3.88621 33.9063C4.00155 34.6089 4.14466 35.3057 4.31742 35.9955L2.06058 36.6171C1.86224 35.831 1.69782 35.0368 1.56799 34.2354ZM2.37916 37.7747L4.63666 37.153C4.84078 37.8326 5.072 38.5054 5.33271 39.1696L3.17403 40.0733C2.87535 39.3165 2.61044 38.5499 2.37916 37.7747ZM3.63954 41.1801L5.79761 40.2766C6.08841 40.9283 6.40465 41.5655 6.74558 42.1877L4.72034 43.3586C4.33025 42.6502 3.96974 41.9237 3.63954 41.1801ZM5.32054 44.3986L7.34654 43.2272C7.71689 43.8344 8.1129 44.4253 8.53225 45.0004L6.67264 46.4197C6.19325 45.765 5.7414 45.0915 5.32054 44.3986ZM7.4023 47.3733L9.26192 45.954C9.70543 46.5067 10.1721 47.0432 10.6625 47.5621L8.99881 49.2067C8.43852 48.6162 7.90675 48.0043 7.4023 47.3733ZM9.84389 50.0597L11.507 48.4156C12.0204 48.9119 12.5506 49.3859 13.0981 49.8357L11.6578 51.6784C11.0328 51.1669 10.4282 50.6268 9.84389 50.0597ZM12.6026 52.4195L14.0428 50.5767C14.6132 51.0028 15.2011 51.4033 15.8037 51.7805L14.6096 53.7923C13.9217 53.3635 13.2518 52.9065 12.6026 52.4195ZM15.6415 54.4061L16.8359 52.394C17.4542 52.7422 18.0877 53.0658 18.7358 53.3638L17.8074 55.5119C17.0678 55.1733 16.3456 54.8046 15.6415 54.4061ZM18.9089 55.9899L19.838 53.8402C20.4994 54.1086 21.1686 54.3499 21.8456 54.5618L21.1981 56.8113C20.4259 56.5711 19.6624 56.2973 18.9089 55.9899ZM22.3521 57.1432L22.9998 54.8933C23.6876 55.074 24.3822 55.2277 25.0834 55.3511L24.7279 57.6633C23.9282 57.5243 23.136 57.3507 22.3521 57.1432ZM33.861 57.7756L33.563 55.4553C34.2675 55.3495 34.9657 55.2132 35.6574 55.0499L36.249 57.3153C35.4608 57.5029 34.6644 57.6565 33.861 57.7756ZM37.4109 57.0125L36.8195 54.7476C37.502 54.5525 38.1771 54.3281 38.8444 54.0764L39.72 56.2485C38.9596 56.537 38.1895 56.7916 37.4109 57.0125ZM47.2519 47.2518C42.5483 51.9553 36.2947 54.5456 29.6428 54.5456C22.991 54.5456 16.7374 51.9553 12.0339 47.2518C9.70686 44.9249 7.89804 42.2181 6.66333 39.2718C6.66235 39.2693 6.66168 39.2669 6.6607 39.2644C6.65928 39.2611 6.6574 39.258 6.65598 39.2546C5.39957 36.2502 4.73992 32.9973 4.73992 29.6428C4.73992 26.5173 5.31207 23.4797 6.40645 20.6494C6.40825 20.6451 6.4108 20.6412 6.41253 20.6367C6.4144 20.6319 6.41568 20.627 6.41741 20.6221C7.65227 17.4397 9.54754 14.52 12.0339 12.0338C16.7374 7.33026 22.991 4.73993 29.6428 4.73993C36.2947 4.73993 42.5483 7.33026 47.2519 12.0338C49.8889 14.6709 51.8614 17.7955 53.0859 21.2041C53.0872 21.2081 53.088 21.212 53.0895 21.2159C53.0907 21.2194 53.0927 21.2225 53.094 21.2259C54.0483 23.8905 54.5457 26.7284 54.5457 29.6428C54.5457 33.2114 53.7992 36.6649 52.3819 39.8264C52.381 39.8282 52.38 39.8299 52.3792 39.8317C52.3786 39.833 52.3782 39.8343 52.3777 39.8357C51.1532 42.5636 49.4295 45.0741 47.2519 47.2518ZM44.0726 54.1582L42.9286 52.1173C43.541 51.755 44.1385 51.3692 44.719 50.9577L46.1134 52.8361C45.4526 53.3065 44.7714 53.7465 44.0726 54.1582ZM47.0762 52.1185L45.6819 50.2405C46.2408 49.8041 46.7826 49.3435 47.3076 48.8601L48.9295 50.545C48.3319 51.0973 47.7141 51.6223 47.0762 52.1185ZM52.1891 46.9839L50.3654 45.5188C50.7992 44.9541 51.2097 44.3732 51.5948 43.7759L53.5911 44.9971C53.1533 45.6788 52.685 46.3409 52.1891 46.9839ZM54.2171 43.9725L52.2216 42.7517C52.5782 42.1379 52.9104 41.509 53.217 40.865L55.3519 41.8217C55.0037 42.5565 54.625 43.2736 54.2171 43.9725ZM55.8501 40.7136C55.8483 40.718 55.8462 40.7223 55.8444 40.7266L53.7088 39.7696C53.986 39.1116 54.2339 38.4449 54.4549 37.771L56.6962 38.4485C56.4473 39.2127 56.1653 39.9681 55.8501 40.7136ZM57.0438 37.2992L54.8031 36.6219C54.9931 35.9362 55.1539 35.2432 55.2866 34.5441L57.5961 34.9307C57.4463 35.7281 57.262 36.5179 57.0438 37.2992ZM56.9559 18.1043C55.6854 15.1004 53.9467 12.3583 51.7796 9.92982C51.7754 9.92487 51.7717 9.91962 51.7675 9.91474C51.7635 9.91031 51.7591 9.90648 51.7551 9.90221C51.3833 9.48653 51.0004 9.07904 50.6034 8.68213C47.8813 5.96001 44.7113 3.82273 41.1814 2.3297C37.5265 0.783775 33.6444 3.8147e-06 29.6428 3.8147e-06C25.6413 3.8147e-06 21.7593 0.783775 18.1043 2.3297C14.5744 3.82273 11.4044 5.96001 8.68219 8.68213C8.46224 8.90216 8.24746 9.12609 8.03515 9.3519C8.02825 9.35858 8.02112 9.36481 8.01444 9.37186C8.00694 9.37997 8.00026 9.3886 7.99328 9.39693C5.59822 11.9545 3.69409 14.8785 2.32977 18.1043C0.783845 21.7592 0 25.6413 0 29.6428C0 29.7742 0.000973571 29.9054 0.00262456 30.0365C0.00262456 30.037 0.00262456 30.0373 0.00262456 30.0376C0.00262456 30.0382 0.00269785 30.0385 0.00269785 30.0391C0.0527529 33.9006 0.834951 37.6471 2.32977 41.1813C3.79616 44.6483 5.88556 47.7672 8.5387 50.4565C8.54643 50.4652 8.55379 50.4742 8.56212 50.4826C8.56857 50.4892 8.57555 50.4949 8.58223 50.5011C8.61585 50.535 8.64842 50.5696 8.68219 50.6035C11.4044 53.3256 14.5744 55.4628 18.1043 56.9559C21.7593 58.5018 25.6413 59.2856 29.6428 59.2856C33.6444 59.2856 37.5265 58.5018 41.1814 56.9559C44.5311 55.5391 47.5561 53.541 50.1824 51.0146C50.1883 51.0094 50.1944 51.0047 50.2 50.9992C50.2074 50.9921 50.214 50.9845 50.2209 50.977C50.349 50.8534 50.4772 50.7297 50.6034 50.6035C53.3256 47.8813 55.4629 44.7112 56.9559 41.1813C58.5019 37.5264 59.2856 33.6443 59.2856 29.6428C59.2856 25.6413 58.5019 21.7592 56.9559 18.1043Z" fill="#DAB335"/>
<path d="M45.6006 45.6C41.3385 49.8622 35.6717 52.2094 29.6441 52.2094C23.6165 52.2094 17.9497 49.8622 13.6876 45.6C9.42542 41.3379 7.07816 35.671 7.07816 29.6435C7.07816 23.616 9.42542 17.9491 13.6876 13.687C17.9497 9.42484 23.6165 7.07758 29.6441 7.07758C35.6717 7.07758 41.3385 9.42484 45.6006 13.687C49.8628 17.9491 52.2101 23.616 52.2101 29.6435C52.2101 35.671 49.8628 41.3379 45.6006 45.6ZM46.4497 12.838C41.9608 8.349 35.9924 5.87686 29.6441 5.87686C23.2958 5.87686 17.3274 8.349 12.8385 12.838C8.34965 17.3269 5.87744 23.2952 5.87744 29.6435C5.87744 35.9918 8.34965 41.9601 12.8385 46.449C17.3274 50.938 23.2958 53.4101 29.6441 53.4101C35.9924 53.4101 41.9608 50.938 46.4497 46.449C50.9386 41.9601 53.4108 35.9918 53.4108 29.6435C53.4108 23.2952 50.9386 17.3269 46.4497 12.838Z" fill="#DAB335"/>
<path d="M47.4493 32.9043C47.399 34.0002 46.2137 35.124 44.0216 36.1543C41.1567 37.5008 38.1788 36.7986 35.1703 34.0675C33.6889 32.7224 32.5578 31.1877 31.9281 30.2438H40.1495C40.481 30.2438 40.7499 29.9749 40.7499 29.6434C40.7499 29.3118 40.481 29.043 40.1495 29.043H31.9276C32.5532 28.1044 33.6748 26.5815 35.1505 25.2374C38.1656 22.4912 41.1502 21.7829 44.0216 23.1325C46.2116 24.1618 47.3969 25.2846 47.4492 26.3795C47.5215 27.8947 45.4933 29.1142 45.4737 29.1257C45.4731 29.1261 45.4726 29.1266 45.4719 29.1269C45.457 29.1358 45.4425 29.1455 45.4283 29.1556C45.4262 29.1571 45.4239 29.1585 45.4219 29.16C45.4085 29.1698 45.3957 29.1804 45.3831 29.1915C45.3805 29.1937 45.3777 29.1957 45.3752 29.198C45.3677 29.2048 45.3607 29.2123 45.3536 29.2195C45.3465 29.2265 45.3392 29.2333 45.3325 29.2407C45.3301 29.2433 45.328 29.2463 45.3257 29.249C45.3148 29.2615 45.3042 29.2741 45.2944 29.2874C45.2929 29.2894 45.2917 29.2917 45.2902 29.2938C45.2799 29.308 45.2702 29.3226 45.2613 29.3376C45.261 29.3381 45.2606 29.3387 45.2602 29.3393C45.2579 29.3433 45.2561 29.3475 45.2538 29.3515C45.2469 29.3641 45.2401 29.3765 45.234 29.3895C45.2301 29.3978 45.2269 29.4063 45.2234 29.4147C45.2196 29.424 45.2156 29.4333 45.2123 29.4428C45.2084 29.4535 45.2054 29.4642 45.2022 29.4749C45.2 29.4826 45.1975 29.4902 45.1956 29.4979C45.1927 29.5094 45.1906 29.5209 45.1884 29.5325C45.187 29.54 45.1854 29.5475 45.1843 29.5551C45.1826 29.5662 45.1816 29.5773 45.1806 29.5884C45.1798 29.5968 45.1789 29.6052 45.1785 29.6137C45.178 29.6236 45.178 29.6335 45.178 29.6434C45.178 29.6533 45.178 29.6632 45.1785 29.673C45.1789 29.6816 45.1798 29.6899 45.1806 29.6984C45.1816 29.7095 45.1826 29.7206 45.1843 29.7317C45.1854 29.7393 45.187 29.7468 45.1884 29.7543C45.1906 29.7659 45.1927 29.7774 45.1956 29.7888C45.1975 29.7966 45.2 29.8042 45.2022 29.8119C45.2054 29.8226 45.2084 29.8333 45.2123 29.844C45.2156 29.8535 45.2196 29.8627 45.2234 29.8721C45.2269 29.8805 45.2301 29.8889 45.234 29.8973C45.2401 29.9103 45.2469 29.9227 45.2538 29.9352C45.2561 29.9393 45.2579 29.9434 45.2602 29.9475C45.2606 29.9481 45.261 29.9486 45.2613 29.9492C45.2702 29.9642 45.2799 29.9788 45.2902 29.993C45.2917 29.9951 45.2929 29.9974 45.2944 29.9994C45.3041 30.0125 45.3146 30.0251 45.3254 30.0375C45.3278 30.0403 45.33 30.0434 45.3325 30.0462C45.3392 30.0534 45.3465 30.0603 45.3536 30.0672C45.3607 30.0745 45.3677 30.082 45.3751 30.0887C45.3777 30.0911 45.3807 30.0932 45.3834 30.0955C45.3959 30.1064 45.4086 30.1171 45.4219 30.1268C45.4239 30.1283 45.4261 30.1296 45.4282 30.131C45.4424 30.1412 45.457 30.151 45.4719 30.1599C45.4726 30.1602 45.4731 30.1606 45.4737 30.161C45.4942 30.173 47.5182 31.4052 47.4493 32.9043ZM36.154 44.0218C35.1247 46.2119 34.0019 47.3971 32.907 47.4494C32.8805 47.4506 32.8541 47.4513 32.8277 47.4513C31.3495 47.4511 30.1722 45.4932 30.1608 45.474C30.1605 45.4734 30.16 45.4729 30.1596 45.4723C30.1506 45.457 30.1406 45.442 30.1302 45.4275C30.1289 45.4258 30.1279 45.4239 30.1266 45.4222C30.1166 45.4085 30.1056 45.3953 30.0943 45.3824C30.0923 45.3801 30.0905 45.3777 30.0886 45.3755C30.0813 45.3674 30.0733 45.36 30.0656 45.3524C30.0591 45.3458 30.0528 45.339 30.0459 45.3328C30.0428 45.3299 30.0393 45.3274 30.036 45.3246C30.024 45.3142 30.0119 45.304 29.9993 45.2947C29.9967 45.2929 29.994 45.2914 29.9915 45.2896C29.9777 45.2797 29.9637 45.2703 29.9492 45.2617C29.9485 45.2613 29.9479 45.2608 29.9473 45.2604C29.9426 45.2577 29.9378 45.2556 29.9331 45.2531C29.9213 45.2465 29.9095 45.2401 29.8973 45.2344C29.8883 45.2302 29.8793 45.2267 29.8701 45.223C29.8615 45.2195 29.8529 45.2157 29.8441 45.2126C29.8329 45.2086 29.8216 45.2054 29.8102 45.202C29.8031 45.2 29.7962 45.1978 29.789 45.196C29.7771 45.193 29.765 45.1906 29.753 45.1884C29.7459 45.1871 29.7389 45.1856 29.7319 45.1846C29.7204 45.1828 29.7089 45.1818 29.6974 45.1807C29.6893 45.18 29.6812 45.1792 29.673 45.1787C29.6629 45.1783 29.6528 45.1783 29.6426 45.1783C29.633 45.1783 29.6233 45.1783 29.6137 45.1787C29.605 45.1791 29.5965 45.1801 29.5879 45.1808C29.5768 45.1819 29.5658 45.1829 29.5548 45.1845C29.5473 45.1856 29.5398 45.1872 29.5323 45.1886C29.5208 45.1908 29.5091 45.193 29.4976 45.1959C29.49 45.1978 29.4825 45.2002 29.4749 45.2023C29.464 45.2056 29.4532 45.2087 29.4424 45.2125C29.4331 45.2158 29.4241 45.2197 29.415 45.2234C29.4063 45.227 29.3977 45.2303 29.3891 45.2343C29.3766 45.2402 29.3645 45.2469 29.3523 45.2535C29.3479 45.256 29.3434 45.2579 29.339 45.2604C29.3384 45.2608 29.3378 45.2613 29.3372 45.2616C29.3224 45.2704 29.308 45.28 29.2939 45.2901C29.2917 45.2917 29.2893 45.2931 29.2871 45.2947C29.274 45.3043 29.2616 45.3148 29.2492 45.3255C29.2463 45.328 29.2432 45.3302 29.2404 45.3327C29.2332 45.3393 29.2264 45.3466 29.2195 45.3536C29.2122 45.3608 29.2046 45.3678 29.1978 45.3754C29.1955 45.378 29.1934 45.3808 29.1912 45.3834C29.1802 45.396 29.1696 45.4087 29.1597 45.4221C29.1582 45.4241 29.157 45.4264 29.1555 45.4285C29.1452 45.4427 29.1355 45.4573 29.1266 45.4723C29.1263 45.4729 29.1259 45.4734 29.1255 45.474C29.1134 45.4944 27.8812 47.5178 26.3822 47.4495C25.2864 47.3991 24.1625 46.2139 23.1323 44.0218C21.7858 41.1571 22.4879 38.1791 25.2191 35.1706C26.5641 33.6891 28.0988 32.5581 29.0428 31.9284V40.1497C29.0428 40.4813 29.3115 40.7501 29.6432 40.7501C29.9747 40.7501 30.2435 40.4813 30.2435 40.1497V31.9278C31.182 32.5535 32.7049 33.675 34.0491 35.1507C36.7953 38.1657 37.5035 41.1504 36.154 44.0218ZM15.2647 36.1543C13.0746 35.1249 11.8894 34.0022 11.8371 32.9073C11.7648 31.3921 13.793 30.1726 13.8126 30.161C13.8308 30.1503 13.8482 30.1387 13.8649 30.1265C13.8691 30.1233 13.873 30.1196 13.8773 30.1164C13.8921 30.1048 13.9064 30.0928 13.9199 30.0801C13.9252 30.0751 13.9303 30.0698 13.9355 30.0646C13.9485 30.0513 13.9609 30.0375 13.9726 30.0233C13.9762 30.0189 13.9798 30.0149 13.9832 30.0104C13.9984 29.9906 14.0125 29.9702 14.0251 29.9489C14.0254 29.9484 14.0258 29.948 14.0261 29.9475C14.0284 29.9434 14.0302 29.9393 14.0324 29.9352C14.0394 29.9227 14.0462 29.9103 14.0522 29.8973C14.0561 29.8889 14.0594 29.8805 14.0628 29.8721C14.0667 29.8627 14.0707 29.8535 14.074 29.844C14.0778 29.8333 14.0808 29.8226 14.0841 29.8119C14.0863 29.8042 14.0887 29.7966 14.0907 29.7888C14.0935 29.7773 14.0957 29.7658 14.0979 29.7542C14.0993 29.7467 14.1009 29.7393 14.102 29.7318C14.1037 29.7206 14.1047 29.7095 14.1058 29.6982C14.1065 29.6899 14.1074 29.6815 14.1078 29.6731C14.1083 29.6632 14.1082 29.6533 14.1082 29.6434C14.1082 29.6335 14.1083 29.6236 14.1078 29.6137C14.1074 29.6053 14.1065 29.5969 14.1058 29.5885C14.1047 29.5773 14.1037 29.5662 14.102 29.555C14.1009 29.5475 14.0993 29.54 14.0979 29.5326C14.0957 29.521 14.0935 29.5094 14.0907 29.4979C14.0887 29.4902 14.0863 29.4826 14.0841 29.4749C14.0808 29.4642 14.0778 29.4535 14.074 29.4428C14.0707 29.4333 14.0667 29.424 14.0628 29.4147C14.0594 29.4063 14.0561 29.3978 14.0522 29.3895C14.0462 29.3765 14.0394 29.3641 14.0324 29.3515C14.0302 29.3475 14.0284 29.3433 14.0261 29.3393C14.0257 29.3387 14.0253 29.3381 14.0249 29.3376C14.016 29.3225 14.0062 29.3079 13.996 29.2935C13.9945 29.2915 13.9933 29.2893 13.9918 29.2874C13.9822 29.2741 13.9715 29.2614 13.9605 29.2489C13.9582 29.2462 13.9561 29.2433 13.9538 29.2407C13.9473 29.2333 13.9399 29.2267 13.9329 29.2197C13.9257 29.2124 13.9187 29.2048 13.9111 29.198C13.9087 29.1958 13.906 29.1939 13.9036 29.1918C13.8908 29.1807 13.8779 29.1699 13.8644 29.1599C13.8625 29.1584 13.8603 29.1572 13.8583 29.1558C13.8439 29.1455 13.8294 29.1358 13.8143 29.1269C13.8137 29.1266 13.8132 29.1261 13.8126 29.1257C13.7921 29.1137 11.7681 27.8816 11.837 26.3825C11.8873 25.2866 13.0726 24.1628 15.2647 23.1325C18.1295 21.786 21.1074 22.4882 24.1159 25.2193C25.5974 26.5644 26.7284 28.099 27.3581 29.043H19.1369C18.8052 29.043 18.5365 29.3118 18.5365 29.6434C18.5365 29.9749 18.8052 30.2438 19.1369 30.2438H27.3586C26.7331 31.1823 25.6114 32.7052 24.1358 34.0494C21.1208 36.7956 18.1362 37.5038 15.2647 36.1543ZM30.2436 29.6384C30.2435 29.6613 30.2449 29.684 30.2473 29.7067C30.248 29.7133 30.249 29.7198 30.2499 29.7264C30.2524 29.7439 30.2556 29.7611 30.2595 29.7782C30.261 29.7846 30.2623 29.7909 30.2639 29.7972C30.2699 29.8197 30.2769 29.8418 30.2854 29.8635C30.2866 29.8664 30.2881 29.8693 30.2893 29.8722C30.2973 29.8916 30.3063 29.9104 30.3163 29.9289C30.3178 29.9316 30.3187 29.9343 30.3202 29.9368C30.3433 29.9782 30.5646 30.3697 30.9595 30.9598C30.3694 30.5649 29.9779 30.3436 29.9366 30.3203C29.9173 30.3096 29.8976 30.3001 29.8778 30.2916C29.8745 30.2903 29.871 30.2892 29.8676 30.2878C29.8484 30.2801 29.829 30.2733 29.8093 30.2677C29.8035 30.266 29.7977 30.2645 29.7918 30.263C29.7731 30.2582 29.7545 30.2544 29.7356 30.2515C29.7307 30.2507 29.7259 30.2498 29.7211 30.2492C29.6971 30.246 29.673 30.244 29.6491 30.2438C29.6487 30.2438 29.6483 30.2438 29.6478 30.2438C29.6251 30.2437 29.6026 30.2451 29.5801 30.2476C29.5733 30.2483 29.5665 30.2493 29.5597 30.2502C29.5426 30.2527 29.5257 30.2558 29.5088 30.2597C29.5022 30.2612 29.4956 30.2625 29.4891 30.2642C29.4667 30.2702 29.4448 30.2771 29.4233 30.2856C29.4199 30.2869 29.4168 30.2886 29.4135 30.29C29.3945 30.2978 29.376 30.3066 29.3579 30.3165C29.3552 30.3179 29.3524 30.3189 29.3497 30.3203C29.3083 30.3436 28.9169 30.5649 28.3267 30.9598C28.7216 30.3697 28.9429 29.9782 28.9662 29.9368C28.9769 29.9176 28.9864 29.898 28.9948 29.8782C28.9964 29.8745 28.9975 29.8708 28.999 29.8671C29.0066 29.8482 29.0132 29.8291 29.0187 29.8099C29.0205 29.8038 29.022 29.7978 29.0235 29.7918C29.0283 29.7733 29.0321 29.7548 29.035 29.7362C29.0358 29.7312 29.0367 29.7262 29.0374 29.7211C29.0406 29.6972 29.0425 29.6733 29.0427 29.6493C29.0427 29.6493 29.0427 29.6486 29.0427 29.6483C29.0429 29.6255 29.0414 29.6027 29.039 29.5801C29.0383 29.5735 29.0373 29.567 29.0364 29.5603C29.0339 29.5429 29.0307 29.5256 29.0268 29.5085C29.0252 29.5022 29.024 29.4959 29.0224 29.4896C29.0164 29.4671 29.0093 29.4449 29.0009 29.4233C28.9997 29.4204 28.9982 29.4175 28.997 29.4146C28.989 29.3952 28.9799 29.3763 28.9699 29.3578C28.9685 29.3552 28.9676 29.3525 28.9662 29.35C28.9429 29.3085 28.7216 28.9171 28.3267 28.327C28.9169 28.7219 29.3083 28.9432 29.3497 28.9664C29.3614 28.9729 29.3735 28.9778 29.3853 28.9834C29.3955 28.9883 29.4055 28.9938 29.4159 28.9981C29.4328 29.0051 29.4501 29.0103 29.4673 29.0156C29.4747 29.0179 29.4819 29.0209 29.4893 29.0228C29.5123 29.0289 29.5355 29.0334 29.5588 29.0367C29.5608 29.037 29.5629 29.0376 29.565 29.0379C29.5909 29.0412 29.6168 29.0431 29.6426 29.0431C29.6537 29.0431 29.6646 29.0416 29.6756 29.041C29.6902 29.0402 29.705 29.04 29.7196 29.0381C29.7293 29.0368 29.7388 29.0343 29.7484 29.0325C29.7642 29.0297 29.7801 29.0273 29.7957 29.0231C29.806 29.0204 29.8159 29.0165 29.8261 29.0132C29.8405 29.0086 29.8549 29.0045 29.8691 28.9988C29.8817 28.9936 29.8938 28.987 29.9061 28.981C29.9163 28.976 29.9267 28.972 29.9366 28.9664C29.9375 28.966 29.94 28.9645 29.9412 28.9638C29.9419 28.9634 29.9425 28.9631 29.9431 28.9627C30.0041 28.9284 30.3876 28.7097 30.9595 28.327C30.5646 28.9171 30.3433 29.3085 30.3202 29.35C30.3093 29.3692 30.3 29.3887 30.2915 29.4085C30.2899 29.4122 30.2888 29.416 30.2874 29.4197C30.2797 29.4385 30.2731 29.4577 30.2675 29.4769C30.2657 29.4829 30.2642 29.4889 30.2627 29.495C30.258 29.5134 30.2542 29.5319 30.2513 29.5506C30.2505 29.5556 30.2495 29.5605 30.2489 29.5656C30.2457 29.5896 30.2438 29.6134 30.2435 29.6374C30.2435 29.6378 30.2436 29.6384 30.2436 29.6384ZM23.1323 15.265C24.1616 13.0749 25.2844 11.8897 26.3792 11.8374C27.8919 11.7649 29.114 13.7932 29.1255 13.8128C29.1259 13.8134 29.1263 13.8139 29.1266 13.8145C29.1356 13.8297 29.1455 13.8444 29.1558 13.8589C29.1572 13.8608 29.1584 13.8628 29.1597 13.8646C29.1696 13.8782 29.1805 13.8913 29.1917 13.904C29.1938 13.9064 29.1957 13.9091 29.1978 13.9114C29.2048 13.9191 29.2125 13.9262 29.22 13.9337C29.2267 13.9405 29.2333 13.9476 29.2404 13.954C29.2433 13.9566 29.2466 13.959 29.2496 13.9616C29.2618 13.9722 29.2742 13.9825 29.287 13.9921C29.2895 13.9939 29.2922 13.9954 29.2947 13.9972C29.3085 14.007 29.3226 14.0164 29.3371 14.0251C29.3378 14.0255 29.3384 14.0259 29.339 14.0263C29.3435 14.029 29.3482 14.0309 29.3527 14.0335C29.3648 14.0401 29.3767 14.0466 29.389 14.0524C29.3979 14.0565 29.4069 14.06 29.4158 14.0636C29.4246 14.0672 29.4333 14.071 29.4422 14.0742C29.4533 14.0781 29.4646 14.0814 29.4757 14.0846C29.483 14.0867 29.4902 14.089 29.4974 14.0908C29.5091 14.0938 29.521 14.0961 29.5329 14.0982C29.5401 14.0996 29.5473 14.1011 29.5546 14.1022C29.5659 14.1039 29.5771 14.1049 29.5883 14.106C29.5967 14.1068 29.605 14.1076 29.6135 14.1081C29.6234 14.1085 29.6332 14.1085 29.643 14.1085C29.653 14.1085 29.6629 14.1085 29.673 14.1081C29.6812 14.1076 29.6895 14.1068 29.6977 14.106C29.7091 14.105 29.7205 14.1039 29.7318 14.1022C29.739 14.1011 29.7461 14.0997 29.7532 14.0983C29.7652 14.0961 29.7771 14.0938 29.7889 14.0908C29.7963 14.089 29.8033 14.0867 29.8106 14.0846C29.8218 14.0814 29.833 14.0781 29.8441 14.0742C29.8531 14.071 29.8619 14.0672 29.8706 14.0636C29.8795 14.0599 29.8885 14.0565 29.8973 14.0524C29.9097 14.0466 29.9217 14.0399 29.9339 14.0333C29.9382 14.0309 29.9428 14.0289 29.9473 14.0263C29.9479 14.0259 29.9485 14.0255 29.9491 14.0251C29.964 14.0163 29.9784 14.0066 29.9926 13.9965C29.9948 13.995 29.997 13.9936 29.9991 13.9921C30.0124 13.9824 30.0251 13.9718 30.0375 13.9609C30.0402 13.9585 30.0432 13.9564 30.0459 13.954C30.0532 13.9473 30.0601 13.9399 30.0672 13.9328C30.0743 13.9256 30.0818 13.9188 30.0885 13.9114C30.0908 13.9088 30.0929 13.9058 30.0952 13.9032C30.1062 13.8907 30.1169 13.8779 30.1265 13.8646C30.128 13.8628 30.1292 13.8606 30.1307 13.8586C30.1409 13.8442 30.1507 13.8296 30.1596 13.8145C30.16 13.8139 30.1604 13.8134 30.1608 13.8128C30.1728 13.7924 31.4045 11.7681 32.9041 11.8372C33.9999 11.8876 35.1237 13.0728 36.154 15.265C37.5005 18.1297 36.7983 21.1077 34.0672 24.1162C32.7222 25.5977 31.1875 26.7286 30.2435 27.3584V19.1371C30.2435 18.8054 29.9747 18.5367 29.6432 18.5367C29.3115 18.5367 29.0428 18.8054 29.0428 19.1371V27.3589C28.1042 26.7333 26.5813 25.6117 25.2372 24.1361C22.4909 21.121 21.7827 18.1363 23.1323 15.265ZM46.8093 29.6434C47.5931 29.0069 48.7176 27.8262 48.6487 26.3273C48.5756 24.7357 47.1907 23.2952 44.5323 22.0458C41.9906 20.8512 39.32 21.0476 36.6938 22.5928C38.2389 19.9665 38.4354 17.2961 37.2407 14.7542C35.9913 12.0959 34.5508 10.7109 32.9592 10.6378C31.4618 10.5691 30.2804 11.6939 29.6433 12.4777C29.0068 11.6939 27.8257 10.5689 26.3271 10.6378C24.7355 10.7109 23.295 12.0959 22.0455 14.7542C20.8509 17.2961 21.0474 19.9665 22.5925 22.5928C19.9663 21.0476 17.2957 20.8512 14.754 22.0458C12.0956 23.2952 10.7106 24.7357 10.6375 26.3273C10.5687 27.8262 11.6931 29.0069 12.477 29.6434C11.6931 30.2799 10.5687 31.4605 10.6375 32.9594C10.7106 34.551 12.0956 35.9915 14.754 37.241C15.8535 37.7577 16.9768 38.0145 18.1105 38.0145C19.5972 38.0145 21.1014 37.5724 22.5913 36.6961C21.0473 39.3217 20.8513 41.9914 22.0455 44.5326C23.295 47.1909 24.7355 48.5759 26.3271 48.649C26.3712 48.651 26.4149 48.652 26.4585 48.652C27.8947 48.652 29.0253 47.5705 29.6431 46.8097C30.2609 47.5706 31.3914 48.6521 32.8279 48.652C32.8713 48.652 32.9152 48.651 32.9592 48.649C34.5508 48.5759 35.9913 47.1909 37.2407 44.5326C38.0422 42.8272 38.2166 41.0639 37.779 39.2949L43.3809 45.5048C43.4994 45.6362 43.6628 45.703 43.8269 45.703C43.9702 45.703 44.114 45.652 44.2288 45.5485C44.475 45.3264 44.4945 44.9467 44.2725 44.7005L37.3926 37.0738C38.6533 37.6991 39.9207 38.0145 41.1758 38.0145C42.3093 38.0145 43.433 37.7576 44.5323 37.241C47.1907 35.9915 48.5756 34.551 48.6487 32.9594C48.7176 31.4605 47.5931 30.2799 46.8093 29.6434Z" fill="#DAB335"/>
</svg>
